<svg width="25" height="24" viewBox="0 0 25 24" fill="none" xmlns="http://www.w3.org/2000/svg">
<rect width="24" height="24" transform="translate(0.5)" fill="black"/>
<path d="M21.7807 18.424C21.4328 19.2275 21.0211 19.9672 20.5441 20.6472C19.8939 21.5743 19.3615 22.216 18.9512 22.5724C18.3152 23.1573 17.6337 23.4568 16.904 23.4739C16.3801 23.4739 15.7483 23.3248 15.0129 23.0224C14.2751 22.7214 13.597 22.5724 12.9771 22.5724C12.3268 22.5724 11.6295 22.7214 10.8836 23.0224C10.1365 23.3248 9.53469 23.4824 9.07456 23.498C8.37478 23.5278 7.67728 23.2198 6.98105 22.5724C6.53669 22.1848 5.98087 21.5204 5.31503 20.5791C4.60063 19.5739 4.01329 18.4084 3.55317 17.0795C3.06038 15.6442 2.81335 14.2543 2.81335 12.9087C2.81335 11.3673 3.14642 10.0379 3.81354 8.92385C4.33784 8.02901 5.03534 7.32313 5.90832 6.80494C6.7813 6.28674 7.72456 6.02268 8.74036 6.00578C9.29618 6.00578 10.0251 6.17771 10.9308 6.5156C11.834 6.85463 12.414 7.02656 12.6683 7.02656C12.8584 7.02656 13.5026 6.82552 14.5948 6.42474C15.6277 6.05306 16.4994 5.89916 17.2135 5.95979C19.1485 6.11595 20.6023 6.87876 21.5691 8.25304C19.8385 9.30164 18.9824 10.7703 18.9995 12.6544C19.0151 14.122 19.5475 15.3432 20.5938 16.3129C21.068 16.7629 21.5975 17.1107 22.1867 17.3578C22.0589 17.7283 21.9241 18.0832 21.7807 18.424ZM17.3427 0.960138C17.3427 2.1104 16.9224 3.1844 16.0848 4.17848C15.074 5.36024 13.8513 6.04312 12.5254 5.93537C12.5086 5.79737 12.4988 5.65213 12.4988 5.49952C12.4988 4.39527 12.9795 3.2135 13.8331 2.24725C14.2593 1.75801 14.8014 1.35123 15.4587 1.02672C16.1146 0.70706 16.735 0.53028 17.3185 0.500008C17.3356 0.65378 17.3427 0.807561 17.3427 0.960123V0.960138Z" fill="white"/>
</svg>
